<svg xmlns="http://www.w3.org/2000/svg" xmlns:xlink="http://www.w3.org/1999/xlink" viewBox="0 0 231.62 75.61"><defs><style>.cls-1{isolation:isolate;}.cls-2{fill:#58abc8;}.cls-10,.cls-11,.cls-12,.cls-13,.cls-14,.cls-15,.cls-16,.cls-17,.cls-18,.cls-19,.cls-20,.cls-22,.cls-23,.cls-24,.cls-25,.cls-28,.cls-29,.cls-3,.cls-30,.cls-31,.cls-32,.cls-33,.cls-34,.cls-4,.cls-6,.cls-7,.cls-8,.cls-9{opacity:0.56;mix-blend-mode:multiply;}.cls-3{fill:url(#linear-gradient);}.cls-4{fill:url(#linear-gradient-3);}.cls-5{fill:none;}.cls-6{fill:url(#linear-gradient-4);}.cls-7{fill:url(#linear-gradient-5);}.cls-8{fill:url(#linear-gradient-7);}.cls-9{fill:url(#linear-gradient-8);}.cls-10{fill:url(#linear-gradient-9);}.cls-11{fill:url(#linear-gradient-10);}.cls-12{fill:url(#linear-gradient-11);}.cls-13{fill:url(#linear-gradient-12);}.cls-14{fill:url(#linear-gradient-13);}.cls-15{fill:url(#linear-gradient-14);}.cls-16{fill:url(#linear-gradient-17);}.cls-17{fill:url(#linear-gradient-18);}.cls-18{fill:url(#linear-gradient-19);}.cls-19{fill:url(#linear-gradient-21);}.cls-20{fill:url(#linear-gradient-22);}.cls-21{fill:#b3b2b3;}.cls-22{fill:url(#linear-gradient-23);}.cls-23{fill:url(#linear-gradient-24);}.cls-24{fill:url(#linear-gradient-25);}.cls-25{fill:url(#linear-gradient-26);}.cls-26{fill:#979797;}.cls-27{fill:#7b7b7b;}.cls-28{fill:url(#linear-gradient-27);}.cls-29{fill:url(#linear-gradient-28);}.cls-30{fill:url(#linear-gradient-29);}.cls-31{fill:url(#linear-gradient-30);}.cls-32{fill:url(#linear-gradient-31);}.cls-33{fill:url(#linear-gradient-32);}.cls-34{fill:url(#linear-gradient-33);}</style><linearGradient id="linear-gradient" x1="9198.72" y1="18233.52" x2="9214.11" y2="18233.52" gradientTransform="translate(9417.62 18304.13) rotate(180)" gradientUnits="userSpaceOnUse"><stop offset="0.01" stop-color="#6d6f70" stop-opacity="0.5"/><stop offset="0.18" stop-color="#6d6f70" stop-opacity="0.3"/><stop offset="0.39" stop-color="#6d6f70" stop-opacity="0.08"/><stop offset="0.52" stop-color="#6d6f70" stop-opacity="0"/><stop offset="1" stop-color="#6d6f70" stop-opacity="0.5"/></linearGradient><linearGradient id="linear-gradient-3" x1="-4061.43" y1="13362.11" x2="-4039.84" y2="13362.11" gradientTransform="translate(13565.65 4111.35) rotate(90)" gradientUnits="userSpaceOnUse"><stop offset="0.01" stop-color="#1b4d74" stop-opacity="0.5"/><stop offset="0.18" stop-color="#1b4d74" stop-opacity="0.29"/><stop offset="0.39" stop-color="#1b4d74" stop-opacity="0.08"/><stop offset="0.52" stop-color="#1b4d74" stop-opacity="0"/></linearGradient><linearGradient id="linear-gradient-4" x1="169.68" y1="64.32" x2="197.24" y2="64.32" gradientTransform="matrix(1, 0, 0, 1, 0, 0)" xlink:href="#linear-gradient"/><linearGradient id="linear-gradient-5" x1="9198.72" y1="18239.82" x2="9214.11" y2="18239.82" xlink:href="#linear-gradient"/><linearGradient id="linear-gradient-7" x1="9198.72" y1="18260.44" x2="9220.31" y2="18260.44" gradientTransform="translate(9417.62 18304.13) rotate(180)" gradientUnits="userSpaceOnUse"><stop offset="0.01" stop-color="#6d6f70" stop-opacity="0.5"/><stop offset="0.18" stop-color="#6d6f70" stop-opacity="0.3"/><stop offset="0.39" stop-color="#6d6f70" stop-opacity="0.08"/><stop offset="0.52" stop-color="#6d6f70" stop-opacity="0"/></linearGradient><linearGradient id="linear-gradient-8" x1="9198.72" y1="18254.21" x2="9220.32" y2="18254.21" xlink:href="#linear-gradient-7"/><linearGradient id="linear-gradient-9" x1="9198.72" y1="18254.24" x2="9220.31" y2="18254.24" xlink:href="#linear-gradient-7"/><linearGradient id="linear-gradient-10" x1="9198.72" y1="18254.21" x2="9220.31" y2="18254.21" xlink:href="#linear-gradient-7"/><linearGradient id="linear-gradient-11" x1="-4061.43" y1="13362.14" x2="-4039.84" y2="13362.14" xlink:href="#linear-gradient-3"/><linearGradient id="linear-gradient-12" x1="-4061.43" y1="13368.34" x2="-4039.84" y2="13368.34" xlink:href="#linear-gradient-3"/><linearGradient id="linear-gradient-13" x1="-4061.43" y1="13362.17" x2="-4039.84" y2="13362.17" xlink:href="#linear-gradient-3"/><linearGradient id="linear-gradient-14" x1="-4061.43" y1="13368.36" x2="-4039.84" y2="13368.36" xlink:href="#linear-gradient-3"/><linearGradient id="linear-gradient-17" x1="9198.72" y1="18239.82" x2="9214.11" y2="18239.82" xlink:href="#linear-gradient"/><linearGradient id="linear-gradient-18" x1="-4061.43" y1="13362.12" x2="-4048.59" y2="13362.12" xlink:href="#linear-gradient-3"/><linearGradient id="linear-gradient-19" x1="9198.72" y1="18236.67" x2="9214.11" y2="18236.67" xlink:href="#linear-gradient"/><linearGradient id="linear-gradient-21" x1="9198.72" y1="18254.2" x2="9217.78" y2="18254.2" xlink:href="#linear-gradient-7"/><linearGradient id="linear-gradient-22" x1="-4061.43" y1="13362.17" x2="-4039.84" y2="13362.17" xlink:href="#linear-gradient-3"/><linearGradient id="linear-gradient-23" x1="14305.62" y1="12300.08" x2="14323.85" y2="12300.08" gradientTransform="matrix(-0.13, -0.99, -0.99, 0.13, 14330.34, 12542.91)" gradientUnits="userSpaceOnUse"><stop offset="0" stop-color="#59595b" stop-opacity="0"/><stop offset="1" stop-color="#6d6f70" stop-opacity="0.5"/></linearGradient><linearGradient id="linear-gradient-24" x1="14305.62" y1="12312.66" x2="14323.85" y2="12312.66" xlink:href="#linear-gradient-23"/><linearGradient id="linear-gradient-25" x1="13779.52" y1="4735.63" x2="13788.09" y2="4735.63" gradientTransform="translate(-4504.13 13807.2) rotate(-90)" gradientUnits="userSpaceOnUse"><stop offset="0" stop-color="#6d6f70" stop-opacity="0"/><stop offset="1" stop-color="#6d6f70" stop-opacity="0.5"/></linearGradient><linearGradient id="linear-gradient-26" x1="13779.52" y1="4729.29" x2="13788.09" y2="4729.29" xlink:href="#linear-gradient-25"/><linearGradient id="linear-gradient-27" x1="169.68" y1="67.44" x2="197.29" y2="67.44" gradientTransform="matrix(1, 0, 0, 1, 0, 0)" xlink:href="#linear-gradient"/><linearGradient id="linear-gradient-28" x1="9198.72" y1="18236.67" x2="9214.17" y2="18236.67" xlink:href="#linear-gradient"/><linearGradient id="linear-gradient-29" x1="-4061.48" y1="13365.26" x2="-4039.83" y2="13365.26" xlink:href="#linear-gradient-3"/><linearGradient id="linear-gradient-30" x1="9198.72" y1="18257.34" x2="9220.31" y2="18257.34" xlink:href="#linear-gradient-7"/><linearGradient id="linear-gradient-31" x1="14305.62" y1="12304.19" x2="14323.85" y2="12304.19" xlink:href="#linear-gradient-23"/><linearGradient id="linear-gradient-32" x1="13779.52" y1="4732.46" x2="13788.08" y2="4732.46" xlink:href="#linear-gradient-25"/><linearGradient id="linear-gradient-33" x1="13779.95" y1="13607.52" x2="13788.45" y2="13607.52" gradientTransform="matrix(0, -1, -1, 0, 13774.09, 13807.2)" gradientUnits="userSpaceOnUse"><stop offset="0" stop-color="#1b4d74" stop-opacity="0"/><stop offset="1" stop-color="#1b4d74" stop-opacity="0.5"/></linearGradient></defs><title>Asset 1</title><g class="cls-1"><g id="Layer_2" data-name="Layer 2"><g id="Layer_1-2" data-name="Layer 1"><polygon class="cls-2" points="203.47 49.85 197.34 49.87 197.31 59.02 197.31 64.27 197.3 64.27 197.3 65.36 197.28 70.56 197.31 70.58 203.48 75.61 203.47 49.85"/><rect class="cls-3" x="203.56" y="70.61" width="15.35" height="0.01"/><rect class="cls-3" x="203.52" y="70.61" width="0.04" height="0.01"/><rect class="cls-4" x="203.52" y="70.61" width="0.04" height="0.01"/><polygon class="cls-5" points="203.48 50.81 203.53 64.31 218.91 64.31 218.91 63.42 218.91 50.59 218.91 49.9 203.48 49.96 203.48 50.81"/><polygon class="cls-2" points="142.15 71.58 143.74 72.99 143.74 7.87 142.15 7.26 142.15 71.58"/><polygon class="cls-2" points="218.91 49.9 218.91 50.59 218.91 63.42 218.91 64.31 218.91 64.31 218.91 70.61 218.91 70.61 225.07 64.31 225.07 49.88 218.91 43.7 218.91 49.9 218.91 49.9"/><polygon class="cls-2" points="203.48 50.81 203.48 49.96 203.47 49.96 203.48 50.81"/><polygon class="cls-2" points="163.44 14.71 163.46 21.51 192.54 8.69 196.91 6.79 189.15 3.4 163.44 14.71"/><rect class="cls-6" x="169.68" y="64.32" width="27.56"/><polygon class="cls-7" points="203.53 64.32 204.47 64.32 218.91 64.32 218.91 64.31 203.53 64.31 203.53 64.32"/><rect class="cls-3" x="203.56" y="70.61" width="15.35" height="0.01"/><polygon class="cls-8" points="218.91 43.69 218.9 43.69 218.91 43.7 218.91 43.69"/><polygon class="cls-9" points="203.48 49.9 203.48 49.96 218.91 49.9 218.91 49.89 217.29 49.89 207.45 49.89 207.45 49.9 203.48 49.9"/><rect class="cls-2" x="203.48" y="49.89" width="3.97" height="0.01"/><rect class="cls-10" x="203.48" y="49.89" width="3.97" height="0.01"/><polygon class="cls-2" points="203.47 49.96 203.48 49.96 203.48 49.9 203.47 49.9 203.47 49.92 203.47 49.92 203.47 49.96"/><polygon class="cls-11" points="203.47 49.96 203.48 49.96 203.48 49.9 203.47 49.9 203.47 49.92 203.47 49.92 203.47 49.96"/><polygon class="cls-2" points="218.9 43.69 218.9 43.69 218.89 43.68 203.46 43.68 197.31 49.9 197.31 49.92 197.34 49.92 197.37 49.92 218.91 49.89 218.91 49.9 218.91 49.9 218.91 43.7 218.9 43.69"/><polygon class="cls-2" points="197.28 70.58 197.3 65.4 197.27 65.37 197.27 64.32 197.24 64.32 197.24 70.56 169.68 70.56 169.68 64.32 169.66 64.32 169.69 18.41 163.46 21.51 163.49 64.33 169.63 70.61 197.31 70.61 197.28 70.58"/><polygon class="cls-12" points="203.52 64.32 203.52 64.31 203.53 64.31 203.48 50.81 203.48 64.32 203.52 64.32"/><polygon class="cls-2" points="197.31 59.09 197.3 64.32 197.31 64.32 197.31 59.09"/><polygon class="cls-13" points="197.31 59.09 197.3 64.32 197.31 64.32 197.31 59.09"/><polygon class="cls-2" points="203.48 64.32 203.47 50.03 203.48 64.32 203.48 50.81 203.47 49.96 203.47 49.96 203.43 70.61 203.52 70.61 203.52 64.32 203.48 64.32"/><polygon class="cls-14" points="203.48 64.32 203.47 50.03 203.48 64.32 203.48 50.81 203.47 49.96 203.47 49.96 203.43 70.61 203.52 70.61 203.52 64.32 203.48 64.32"/><polygon class="cls-2" points="197.3 65.4 197.3 64.32 197.27 64.32 197.27 65.37 197.3 65.4"/><polygon class="cls-15" points="197.3 65.4 197.3 64.32 197.27 64.32 197.27 65.37 197.3 65.4"/><rect class="cls-3" x="203.52" y="70.61" width="0.04" height="0.01"/><rect class="cls-4" x="203.52" y="70.61" width="0.04" height="0.01"/><rect class="cls-16" x="203.52" y="64.32" width="0.02"/><rect class="cls-17" x="203.52" y="64.32" width="0.02"/><polygon class="cls-2" points="203.52 70.61 203.56 70.61 203.53 64.32 203.52 64.32 203.52 70.61"/><polygon class="cls-18" points="203.52 70.61 203.56 70.61 203.53 64.32 203.52 64.32 203.52 70.61"/><polygon class="cls-4" points="203.52 70.61 203.56 70.61 203.53 64.32 203.52 64.32 203.52 70.61"/><polygon class="cls-2" points="203.47 49.92 203.47 49.92 203.47 49.96 203.47 49.96 203.47 49.92"/><polygon class="cls-19" points="203.47 49.92 203.47 49.92 203.47 49.96 203.47 49.96 203.47 49.92"/><polygon class="cls-20" points="203.47 49.92 203.47 49.92 203.47 49.96 203.47 49.96 203.47 49.92"/><polygon class="cls-21" points="190.28 2.89 189.14 3.39 189.15 3.4 190.27 2.91 190.28 2.89"/><polygon class="cls-22" points="225.16 12.42 231.5 15.19 231.5 15.24 231.62 15.17 204.65 3.42 204.63 3.43 225.16 12.42"/><polygon class="cls-2" points="204.63 3.43 204.65 3.42 204.63 3.43 204.63 3.43"/><polygon class="cls-23" points="204.63 3.43 204.65 3.42 204.63 3.43 204.63 3.43"/><polygon class="cls-21" points="225.16 12.42 204.63 3.43 204.63 3.43 204.65 3.42 196.86 0.01 196.85 0.01 196.82 0 190.28 2.89 190.28 2.89 190.27 2.91 189.15 3.4 196.91 6.79 196.91 6.78 225.12 19.05 231.5 15.24 231.5 15.19 225.16 12.42"/><polygon class="cls-24" points="231.5 21.89 231.5 27.68 231.5 27.68 231.5 21.89 231.5 21.89 231.5 21.89"/><polygon class="cls-25" points="225.15 19.12 225.16 21.52 225.16 19.12 225.15 19.12"/><polygon class="cls-21" points="225.12 19.05 196.91 6.78 196.91 6.79 225.16 19.12 225.16 19.12 225.16 21.52 225.16 27.72 231.5 27.72 231.5 27.68 231.5 21.89 231.5 21.89 231.5 15.24 225.12 19.05"/><path class="cls-26" d="M87.14,27.38h3.3V44.1H106.7V27.32c4.21.17,8.32-.62,12.31.62a6.31,6.31,0,0,1,4.63,5.78c.29,4.42.08,8.87.08,13.47H51.85c-5.9,0-7.47-1.55-7.49-7.48,0-6.88,0-13.75,0-20.63V17.75h3.29v22.7c0,3,.72,3.72,3.7,3.74,2.51,0,12.1,0,14.76,0V28.82h3.19V44.09h7.34V28.81h3.31v15.3h7.2Zm33.5,16.74c0-3.1.12-6,0-8.92a4.67,4.67,0,0,0-4.37-4.76,53.75,53.75,0,0,0-6.22-.05V44.12Z"/><path class="cls-26" d="M17.83,44.15H34.7V27.43h3.24V47.1H0V44.25H14.82c-.19-3.66-.16-7.18-.64-10.64-.3-2.2-2.29-3.23-5.1-3.31-1.94-.05-3.88,0-5.92,0V27.58a67.77,67.77,0,0,1,8.91.08c3.51.46,5.52,3.18,5.7,7,.12,2.56.05,5.13.06,7.69Z"/><path class="cls-26" d="M34.94,21.15c-.21,0-.24,0-.24.23v3c0,.2,0,.23.24.23H37.7c.2,0,.23,0,.23-.23v-3c0-.2,0-.23-.23-.23Z"/><path class="cls-26" d="M18.36,52.43v17.5H16.28V55l-.17,0c-.13.3-.29.59-.4.9-1.64,4.4-3.29,8.8-4.89,13.21-.26.71-.6,1.06-1.36.93a2.89,2.89,0,0,0-.83,0c-.6.1-.83-.2-1-.73Q5.08,62.45,2.52,55.64a1.48,1.48,0,0,0-.4-.67v15H.1V52.48H3.51L9.18,67.72l.62-1.55c1.6-4.31,3.22-8.63,4.8-13a1,1,0,0,1,1.19-.81C16.61,52.47,17.44,52.43,18.36,52.43Z"/><path class="cls-26" d="M73.91,52.43a15.16,15.16,0,0,1,2.14,0,1.45,1.45,0,0,1,.78.64c2.8,4.26,5.58,8.54,8.37,12.8a2.68,2.68,0,0,0,.72.81V52.47h2V70a17.44,17.44,0,0,1-2.17,0c-.25,0-.51-.37-.68-.62q-4.25-6.48-8.46-13c-.18-.27-.37-.54-.72-1V70h-2Z"/><path class="cls-26" d="M109,52.59c3,0,5.87-.21,8.74.06,3.14.3,5,2.26,5.66,5.41a15.08,15.08,0,0,1,0,6.38c-.75,3.44-2.93,5.29-6.7,5.5-2.53.14-5.07,0-7.67,0Zm2.08,1.64V68.12c1.63,0,3.19.07,4.74,0,3.2-.18,5-1.45,5.35-4.09a23.19,23.19,0,0,0,0-5.46,4.12,4.12,0,0,0-3.53-3.92C115.48,54.31,113.27,54.35,111.05,54.23Z"/><path class="cls-26" d="M23.25,52.47h2.09v1c0,3.21,0,6.42,0,9.63,0,3.75,1.29,5,5,5H34.6V52.48h2.13V69.86s-.08.1-.12.1c-2.63,0-5.27.12-7.89,0-3.36-.19-5.25-1.94-5.42-5.29C23.09,60.62,23.25,56.58,23.25,52.47Z"/><path class="cls-26" d="M55,70c2.3-5.92,4.55-11.73,6.8-17.5a1.13,1.13,0,0,1,.24-.05c2.28-.1,2.28-.1,3.1,2Q68,61.72,70.79,69c.11.28.2.57.35,1a17.68,17.68,0,0,1-1.94,0,.94.94,0,0,1-.57-.55c-.44-1.1-.85-2.22-1.24-3.34a.88.88,0,0,0-1-.71c-2.23,0-4.46,0-6.69,0-.53,0-.82.1-1,.66-.33,1-.81,2-1.13,3.09-.2.67-.5,1-1.21.87A12.57,12.57,0,0,0,55,70Zm8.15-15.35h-.21l-3.26,8.81H66.4Z"/><path class="cls-26" d="M52.73,52.51v1.83c-1.35,0-2.65,0-4,0-1.13,0-2.27,0-3.39.06-1.52.11-2.35,1.18-2.34,2.85s.84,2.72,2.35,2.84c1,.08,2.08,0,3.12.06,4.26.1,5.31,2.77,4.9,6a3.86,3.86,0,0,1-3.93,3.75c-2.73.19-5.48,0-8.26,0V68.14h1c2,0,4,0,6,0,2.24,0,3.24-1.13,3.13-3.35a2.56,2.56,0,0,0-2.72-2.7c-1,0-2,0-3,0-3.72-.14-5-2.42-4.62-5.68.28-2.43,1.56-3.69,4-3.82S50.09,52.51,52.73,52.51Z"/><path class="cls-26" d="M106,67.69H94.5V62.48H105v-2.4H94.51v-5.3H105V52.56H92.27V70H106Z"/><path class="cls-27" d="M87.14,27.38h3.3V44.1H106.7V27.32c4.21.17,8.32-.62,12.31.62a6.31,6.31,0,0,1,4.63,5.78c.29,4.42.08,8.87.08,13.47H51.85c-5.9,0-7.47-1.55-7.49-7.48,0-6.88,0-13.75,0-20.63V17.75h3.29v22.7c0,3,.72,3.72,3.7,3.74,2.51,0,12.1,0,14.76,0V28.82h3.19V44.09h7.34V28.81h3.31v15.3h7.2Zm33.5,16.74c0-3.1.12-6,0-8.92a4.67,4.67,0,0,0-4.37-4.76,53.75,53.75,0,0,0-6.22-.05V44.12Z"/><path class="cls-27" d="M17.83,44.15H34.7V27.43h3.24V47.1H0V44.25H14.82c-.19-3.66-.16-7.18-.64-10.64-.3-2.2-2.29-3.23-5.1-3.31-1.94-.05-3.88,0-5.92,0V27.58a67.77,67.77,0,0,1,8.91.08c3.51.46,5.52,3.18,5.7,7,.12,2.56.05,5.13.06,7.69Z"/><path class="cls-27" d="M34.94,21.15c-.21,0-.24,0-.24.23v3c0,.2,0,.23.24.23H37.7c.2,0,.23,0,.23-.23v-3c0-.2,0-.23-.23-.23Z"/><path class="cls-27" d="M18.36,52.43v17.5H16.28V55l-.17,0c-.13.3-.29.59-.4.9-1.64,4.4-3.29,8.8-4.89,13.21-.26.71-.6,1.06-1.36.93a2.89,2.89,0,0,0-.83,0c-.6.1-.83-.2-1-.73Q5.08,62.45,2.52,55.64a1.48,1.48,0,0,0-.4-.67v15H.1V52.48H3.51L9.18,67.72l.62-1.55c1.6-4.31,3.22-8.63,4.8-13a1,1,0,0,1,1.19-.81C16.61,52.47,17.44,52.43,18.36,52.43Z"/><path class="cls-27" d="M73.91,52.43a15.16,15.16,0,0,1,2.14,0,1.45,1.45,0,0,1,.78.64c2.8,4.26,5.58,8.54,8.37,12.8a2.68,2.68,0,0,0,.72.81V52.47h2V70a17.44,17.44,0,0,1-2.17,0c-.25,0-.51-.37-.68-.62q-4.25-6.48-8.46-13c-.18-.27-.37-.54-.72-1V70h-2Z"/><path class="cls-27" d="M109,52.59c3,0,5.87-.21,8.74.06,3.14.3,5,2.26,5.66,5.41a15.08,15.08,0,0,1,0,6.38c-.75,3.44-2.93,5.29-6.7,5.5-2.53.14-5.07,0-7.67,0Zm2.08,1.64V68.12c1.63,0,3.19.07,4.74,0,3.2-.18,5-1.45,5.35-4.09a23.19,23.19,0,0,0,0-5.46,4.12,4.12,0,0,0-3.53-3.92C115.48,54.31,113.27,54.35,111.05,54.23Z"/><path class="cls-27" d="M23.25,52.47h2.09v1c0,3.21,0,6.42,0,9.63,0,3.75,1.29,5,5,5H34.6V52.48h2.13V69.86s-.08.1-.12.1c-2.63,0-5.27.12-7.89,0-3.36-.19-5.25-1.94-5.42-5.29C23.09,60.62,23.25,56.58,23.25,52.47Z"/><path class="cls-27" d="M55,70c2.3-5.92,4.55-11.73,6.8-17.5a1.13,1.13,0,0,1,.24-.05c2.28-.1,2.28-.1,3.1,2Q68,61.72,70.79,69c.11.28.2.57.35,1a17.68,17.68,0,0,1-1.94,0,.94.94,0,0,1-.57-.55c-.44-1.1-.85-2.22-1.24-3.34a.88.88,0,0,0-1-.71c-2.23,0-4.46,0-6.69,0-.53,0-.82.1-1,.66-.33,1-.81,2-1.13,3.09-.2.67-.5,1-1.21.87A12.57,12.57,0,0,0,55,70Zm8.15-15.35h-.21l-3.26,8.81H66.4Z"/><path class="cls-27" d="M52.73,52.51v1.83c-1.35,0-2.65,0-4,0-1.13,0-2.27,0-3.39.06-1.52.11-2.35,1.18-2.34,2.85s.84,2.72,2.35,2.84c1,.08,2.08,0,3.12.06,4.26.1,5.31,2.77,4.9,6a3.86,3.86,0,0,1-3.93,3.75c-2.73.19-5.48,0-8.26,0V68.14h1c2,0,4,0,6,0,2.24,0,3.24-1.13,3.13-3.35a2.56,2.56,0,0,0-2.72-2.7c-1,0-2,0-3,0-3.72-.14-5-2.42-4.62-5.68.28-2.43,1.56-3.69,4-3.82S50.09,52.51,52.73,52.51Z"/><path class="cls-27" d="M106,67.69H94.5V62.48H105v-2.4H94.51v-5.3H105V52.56H92.27V70H106Z"/><polygon class="cls-2" points="218.91 64.31 218.91 64.32 206.18 64.32 204.47 64.32 203.53 64.32 169.68 64.32 169.68 70.56 203.56 70.56 203.56 70.61 218.91 70.61 218.91 64.31 218.91 64.31"/><rect class="cls-28" x="169.68" y="64.32" width="27.61" height="6.24"/><polygon class="cls-29" points="218.91 64.31 218.91 64.32 204.41 64.32 203.47 64.32 203.49 70.61 218.91 70.61 218.91 64.31 218.91 64.31"/><polygon class="cls-30" points="203.43 70.61 203.47 49.91 197.34 49.93 197.31 59.06 197.31 64.3 197.3 64.3 197.3 65.39 202.63 70.61 203.43 70.61"/><polygon class="cls-31" points="207.45 49.89 217.29 49.89 218.91 49.89 218.91 49.9 218.91 49.9 218.91 43.7 218.9 43.69 207.38 43.69 207.45 49.89"/><polygon class="cls-32" points="225.16 12.42 204.63 3.43 196.91 6.78 225.12 19.05 231.5 15.24 231.5 15.19 225.16 12.42"/><polygon class="cls-33" points="226.27 19.61 225.16 19.12 225.16 21.52 225.16 27.68 231.5 27.68 231.5 21.89 226.27 19.61"/><polygon class="cls-34" points="163.48 27.25 169.67 27.26 169.67 18.76 163.47 21.45 163.48 27.25"/></g></g></g></svg>